<svg xmlns="http://www.w3.org/2000/svg" viewBox="0 0 32 32" width="32" height="32">
  <!-- Cake Base (Bottom Layer) -->
  <ellipse cx="16" cy="26" rx="12" ry="3" fill="#8B4513" stroke="#654321" stroke-width="0.5"/>
  
  <!-- Cake Middle Layer -->
  <rect x="6" y="18" width="20" height="8" fill="#FFB6C1" stroke="#FF69B4" stroke-width="0.5" rx="1"/>
  <ellipse cx="16" cy="18" rx="10" ry="2" fill="#FFC0CB"/>
  
  <!-- Cake Top Layer -->
  <rect x="8" y="12" width="16" height="6" fill="#87CEEB" stroke="#4682B4" stroke-width="0.5" rx="1"/>
  <ellipse cx="16" cy="12" rx="8" ry="1.5" fill="#B0E0E6"/>
  
  <!-- Frosting Details -->
  <path d="M 6 22 Q 8 20 10 22 Q 12 20 14 22 Q 16 20 18 22 Q 20 20 22 22 Q 24 20 26 22" 
        stroke="#FF69B4" stroke-width="1" fill="none"/>
  
  <!-- Candle -->
  <rect x="15" y="6" width="2" height="6" fill="#FFFF99" stroke="#FFD700" stroke-width="0.3"/>
  
  <!-- Flame -->
  <ellipse cx="16" cy="5" rx="1" ry="2" fill="#FF4500"/>
  <ellipse cx="16" cy="4.5" rx="0.5" ry="1" fill="#FFA500"/>
  
  <!-- Cherry on top -->
  <circle cx="20" cy="10" r="1.5" fill="#DC143C"/>
  <path d="M 20 8.5 Q 19.5 7 20.5 7" stroke="#228B22" stroke-width="0.8" fill="none"/>
</svg> 