<svg xmlns="http://www.w3.org/2000/svg" viewBox="0 0 32 32" width="32" height="32">
  <!-- Background circle -->
  <circle cx="16" cy="16" r="15" fill="#FFE4E1" stroke="#FF69B4" stroke-width="1"/>
  
  <!-- Cake Base -->
  <ellipse cx="16" cy="24" rx="8" ry="2" fill="#8B4513"/>
  
  <!-- Cake Layer 1 (Bottom) -->
  <rect x="9" y="18" width="14" height="6" fill="#FFB6C1" rx="1"/>
  <ellipse cx="16" cy="18" rx="7" ry="1.5" fill="#FFC0CB"/>
  
  <!-- Cake Layer 2 (Top) -->
  <rect x="11" y="14" width="10" height="4" fill="#E6E6FA" rx="1"/>
  <ellipse cx="16" cy="14" rx="5" ry="1" fill="#F0E6FF"/>
  
  <!-- Decorative frosting swirls -->
  <path d="M 9 21 Q 11 19 13 21 Q 15 19 17 21 Q 19 19 21 21 Q 23 19 23 21" 
        stroke="#FF1493" stroke-width="0.8" fill="none"/>
  
  <!-- Sugar flowers -->
  <g transform="translate(12,12)">
    <circle cx="0" cy="0" r="1.5" fill="#FFB6C1"/>
    <circle cx="-1" cy="-1" r="0.8" fill="#FF69B4"/>
    <circle cx="1" cy="-1" r="0.8" fill="#FF69B4"/>
    <circle cx="0" cy="1.2" r="0.8" fill="#FF69B4"/>
  </g>
  
  <!-- Sparkles for "Art" -->
  <g fill="#FFD700">
    <polygon points="8,8 8.5,9.5 10,10 8.5,10.5 8,12 7.5,10.5 6,10 7.5,9.5" />
    <polygon points="24,6 24.3,6.7 25,7 24.3,7.3 24,8 23.7,7.3 23,7 23.7,6.7" />
    <polygon points="6,20 6.3,20.7 7,21 6.3,21.3 6,22 5.7,21.3 5,21 5.7,20.7" />
  </g>
  
  <!-- Crown on top (for "Diva") -->
  <g transform="translate(16,8)">
    <polygon points="-2,2 -1,0 0,1 1,0 2,2 1.5,3 -1.5,3" fill="#FFD700" stroke="#FFA500" stroke-width="0.3"/>
    <circle cx="0" cy="0.5" r="0.4" fill="#FF1493"/>
  </g>
</svg> 